<svg width="34" height="34" viewBox="0 0 34 34" fill="none" xmlns="http://www.w3.org/2000/svg">
<path d="M0 30.6001C5.63332 30.6001 10.2 26.0334 10.2 20.4001C10.2 14.7668 5.63332 10.2001 0 10.2001V17.34C1.68998 17.34 3.05998 18.7101 3.05998 20.4001C3.05998 22.0901 1.68998 23.4601 0 23.4601V30.6001Z" fill="#2669CC"/>
<path d="M34.0001 13.6C32.257 13.0479 30.4009 12.75 28.475 12.75C18.382 12.75 10.2001 20.932 10.2001 31.025C10.2001 32.038 10.2825 33.0319 10.441 34H21.7958C21.3905 33.0912 21.1652 32.0845 21.1652 31.025C21.1652 26.9878 24.4379 23.715 28.475 23.715C30.6816 23.715 32.6597 24.6926 34.0001 26.2384V13.6Z" fill="#BFD9FF"/>
<path d="M1.79337 0C2.63901 7.64992 9.12467 13.6001 17 13.6001C24.8752 13.6001 31.3609 7.64992 32.2065 0H21.2648C20.5893 1.69339 18.9343 2.88999 17 2.88999C15.0656 2.88999 13.4107 1.69339 12.7351 0H1.79337Z" fill="#3083FF"/>
</svg>
