<svg width="20" height="20" viewBox="0 0 20 20" fill="none" xmlns="http://www.w3.org/2000/svg">
<path opacity="0.4" d="M9.825 11.8415L7.10001 14.5665C6.80001 14.2998 6.50834 14.0248 6.225 13.7415C5.36667 12.8748 4.59167 11.9665 3.9 11.0165C3.21667 10.0665 2.66667 9.1165 2.26667 8.17484C1.86667 7.22484 1.66667 6.3165 1.66667 5.44984C1.66667 4.88317 1.76667 4.3415 1.96667 3.8415C2.16667 3.33317 2.48334 2.8665 2.92501 2.44984C3.45834 1.92484 4.04167 1.6665 4.65834 1.6665C4.89167 1.6665 5.12501 1.7165 5.33334 1.8165C5.55 1.9165 5.74167 2.0665 5.89167 2.28317L7.82501 5.00817C7.97501 5.2165 8.08334 5.40817 8.15834 5.5915C8.23334 5.7665 8.27501 5.9415 8.27501 6.09984C8.27501 6.29984 8.21667 6.49984 8.10001 6.6915C7.99167 6.88317 7.83334 7.08317 7.63334 7.28317L7 7.9415C6.90834 8.03317 6.86667 8.1415 6.86667 8.27484C6.86667 8.3415 6.87501 8.39984 6.89167 8.4665C6.91667 8.53317 6.94167 8.58317 6.95834 8.63317C7.10834 8.90817 7.36667 9.2665 7.73334 9.69984C8.10834 10.1332 8.50834 10.5748 8.94167 11.0165C9.24167 11.3082 9.53334 11.5915 9.825 11.8415Z" fill="#3083FF"/>
<path d="M18.3083 15.2752C18.3083 15.5085 18.2667 15.7502 18.1833 15.9835C18.1583 16.0502 18.1333 16.1169 18.1 16.1835C17.9583 16.4835 17.775 16.7669 17.5333 17.0335C17.125 17.4835 16.675 17.8085 16.1667 18.0169C16.1583 18.0169 16.15 18.0252 16.1417 18.0252C15.65 18.2252 15.1167 18.3335 14.5417 18.3335C13.6917 18.3335 12.7833 18.1335 11.825 17.7252C10.8667 17.3169 9.90833 16.7669 8.95833 16.0752C8.63333 15.8335 8.30833 15.5919 8 15.3335L10.725 12.6085C10.9583 12.7835 11.1667 12.9169 11.3417 13.0085C11.3833 13.0252 11.4333 13.0502 11.4917 13.0752C11.5583 13.1002 11.625 13.1085 11.7 13.1085C11.8417 13.1085 11.95 13.0585 12.0417 12.9669L12.675 12.3419C12.8833 12.1335 13.0833 11.9752 13.275 11.8752C13.4667 11.7585 13.6583 11.7002 13.8667 11.7002C14.025 11.7002 14.1917 11.7335 14.375 11.8085C14.5583 11.8835 14.75 11.9919 14.9583 12.1335L17.7167 14.0919C17.9333 14.2419 18.0833 14.4169 18.175 14.6252C18.2583 14.8335 18.3083 15.0419 18.3083 15.2752Z" fill="#3083FF"/>
</svg>
