<svg width="78" height="87" viewBox="0 0 78 87" fill="none" xmlns="http://www.w3.org/2000/svg">
<g filter="url(#filter0_f_355_3477)">
<circle cx="39" cy="48" r="8" fill="#3083FF"/>
</g>
<path opacity="0.35" d="M62.7534 31.8733C62.4034 28.0233 61.3767 23.9166 53.8867 23.9166H24.1134C16.6234 23.9166 15.62 28.0233 15.2467 31.8733L13.94 46.0833C13.7767 47.8566 14.36 49.63 15.5734 50.96C16.81 52.3133 18.56 53.0833 20.4267 53.0833H24.8134C28.5934 53.0833 29.3167 50.9133 29.7834 49.49L30.25 48.09C30.7867 46.48 30.9267 46.0833 33.0267 46.0833H44.9734C47.0734 46.0833 47.1434 46.3166 47.75 48.09L48.2167 49.49C48.6834 50.9133 49.4067 53.0833 53.1867 53.0833H57.5734C59.4167 53.0833 61.19 52.3133 62.4267 50.96C63.64 49.63 64.2234 47.8566 64.06 46.0833L62.7534 31.8733Z" fill="#3083FF"/>
<path d="M60 16.9167H57.6667C57.6433 16.9167 57.6433 16.9167 57.62 16.9167L56.7333 12.6934C55.8933 8.61006 54.1433 4.85339 47.19 4.85339H40.75H37.25H30.81C23.8567 4.85339 22.1067 8.61006 21.2667 12.6934L20.38 16.9167C20.3567 16.9167 20.3567 16.9167 20.3333 16.9167H18C17.0433 16.9167 16.25 17.7101 16.25 18.6667C16.25 19.6234 17.0433 20.4167 18 20.4167H19.6567L18.6767 25.0834C19.9367 24.3601 21.6867 23.9167 24.1133 23.9167H53.8867C56.3133 23.9167 58.0633 24.3601 59.3233 25.0834L58.3433 20.4167H60C60.9567 20.4167 61.75 19.6234 61.75 18.6667C61.75 17.7101 60.9567 16.9167 60 16.9167Z" fill="#3083FF"/>
<path d="M32 36.75H25C24.0433 36.75 23.25 35.9567 23.25 35C23.25 34.0433 24.0433 33.25 25 33.25H32C32.9567 33.25 33.75 34.0433 33.75 35C33.75 35.9567 32.9567 36.75 32 36.75Z" fill="#3083FF"/>
<path d="M53 36.75H46C45.0433 36.75 44.25 35.9567 44.25 35C44.25 34.0433 45.0433 33.25 46 33.25H53C53.9567 33.25 54.75 34.0433 54.75 35C54.75 35.9567 53.9567 36.75 53 36.75Z" fill="#3083FF"/>
<defs>
<filter id="filter0_f_355_3477" x="0" y="9" width="78" height="78" filterUnits="userSpaceOnUse" color-interpolation-filters="sRGB">
<feFlood flood-opacity="0" result="BackgroundImageFix"/>
<feBlend mode="normal" in="SourceGraphic" in2="BackgroundImageFix" result="shape"/>
<feGaussianBlur stdDeviation="15.5" result="effect1_foregroundBlur_355_3477"/>
</filter>
</defs>
</svg>
