<svg width="78" height="87" viewBox="0 0 78 87" fill="none" xmlns="http://www.w3.org/2000/svg">
<g filter="url(#filter0_f_355_3486)">
<circle cx="39" cy="48" r="8" fill="#3083FF"/>
</g>
<path d="M50.0834 8.30662V4.66663C50.0834 3.70996 49.29 2.91663 48.3334 2.91663C47.3767 2.91663 46.5834 3.70996 46.5834 4.66663V8.16663H31.4167V4.66663C31.4167 3.70996 30.6234 2.91663 29.6667 2.91663C28.71 2.91663 27.9167 3.70996 27.9167 4.66663V8.30662C21.6167 8.88995 18.56 12.6466 18.0934 18.2233C18.0467 18.9 18.6067 19.46 19.26 19.46H58.74C59.4167 19.46 59.9767 18.8766 59.9067 18.2233C59.44 12.6466 56.3834 8.88995 50.0834 8.30662Z" fill="#3083FF"/>
<path opacity="0.4" d="M57.6667 22.96C58.95 22.96 60 24.01 60 25.2933V39.6666C60 46.6666 56.5 51.3333 48.3333 51.3333H29.6667C21.5 51.3333 18 46.6666 18 39.6666V25.2933C18 24.01 19.05 22.96 20.3333 22.96H57.6667Z" fill="#3083FF"/>
<path d="M30.8333 35C30.2267 35 29.62 34.7433 29.1767 34.3233C28.7567 33.88 28.5 33.2734 28.5 32.6667C28.5 32.06 28.7567 31.4534 29.1767 31.01C29.83 30.3567 30.8567 30.1467 31.72 30.52C32.0233 30.6367 32.28 30.8 32.49 31.01C32.91 31.4534 33.1667 32.06 33.1667 32.6667C33.1667 33.2734 32.91 33.88 32.49 34.3233C32.0467 34.7433 31.44 35 30.8333 35Z" fill="#3083FF"/>
<path d="M39 35C38.3934 35 37.7867 34.7433 37.3434 34.3233C36.9234 33.88 36.6667 33.2734 36.6667 32.6667C36.6667 32.06 36.9234 31.4534 37.3434 31.01C37.5534 30.8 37.81 30.6367 38.1134 30.52C38.9767 30.1467 40.0034 30.3567 40.6567 31.01C41.0767 31.4534 41.3334 32.06 41.3334 32.6667C41.3334 33.2734 41.0767 33.88 40.6567 34.3233C40.54 34.4167 40.4234 34.51 40.3067 34.6033C40.1667 34.6967 40.0267 34.7667 39.8867 34.8134C39.7467 34.8834 39.6067 34.9301 39.4667 34.9534C39.3034 34.9767 39.1634 35 39 35Z" fill="#3083FF"/>
<path d="M47.1666 35.0001C46.56 35.0001 45.9533 34.7434 45.51 34.3234C45.09 33.88 44.8333 33.2734 44.8333 32.6667C44.8333 32.0601 45.09 31.4534 45.51 31.0101C45.7433 30.8001 45.9766 30.6367 46.28 30.52C46.7 30.3334 47.1666 30.2867 47.6333 30.38C47.7733 30.4034 47.9133 30.45 48.0533 30.52C48.1933 30.5667 48.3333 30.6368 48.4733 30.7301C48.59 30.8234 48.7066 30.9168 48.8233 31.0101C49.2433 31.4534 49.5 32.0601 49.5 32.6667C49.5 33.2734 49.2433 33.88 48.8233 34.3234C48.7066 34.4167 48.59 34.51 48.4733 34.6034C48.3333 34.6967 48.1933 34.7668 48.0533 34.8134C47.9133 34.8834 47.7733 34.9301 47.6333 34.9534C47.47 34.9768 47.3066 35.0001 47.1666 35.0001Z" fill="#3083FF"/>
<path d="M30.8333 43.1667C30.53 43.1667 30.2267 43.0967 29.9467 42.9801C29.6433 42.8634 29.41 42.7 29.1767 42.49C28.7567 42.0467 28.5 41.44 28.5 40.8334C28.5 40.2267 28.7567 39.62 29.1767 39.1767C29.41 38.9667 29.6433 38.8033 29.9467 38.6867C30.3667 38.5 30.8333 38.4533 31.3 38.5467C31.44 38.57 31.58 38.6167 31.72 38.6867C31.86 38.7333 32 38.8034 32.14 38.8967C32.2567 38.9901 32.3733 39.0834 32.49 39.1767C32.91 39.62 33.1667 40.2267 33.1667 40.8334C33.1667 41.44 32.91 42.0467 32.49 42.49C32.3733 42.5833 32.2567 42.7 32.14 42.77C32 42.8633 31.86 42.9334 31.72 42.9801C31.58 43.0501 31.44 43.0967 31.3 43.1201C31.1367 43.1434 30.9967 43.1667 30.8333 43.1667Z" fill="#3083FF"/>
<path d="M39 43.1667C38.3934 43.1667 37.7867 42.91 37.3434 42.49C36.9234 42.0466 36.6667 41.44 36.6667 40.8333C36.6667 40.2267 36.9234 39.62 37.3434 39.1767C38.2067 38.3133 39.7934 38.3133 40.6567 39.1767C41.0767 39.62 41.3334 40.2267 41.3334 40.8333C41.3334 41.44 41.0767 42.0466 40.6567 42.49C40.2134 42.91 39.6067 43.1667 39 43.1667Z" fill="#3083FF"/>
<path d="M47.1666 43.1667C46.56 43.1667 45.9533 42.91 45.51 42.49C45.09 42.0466 44.8333 41.44 44.8333 40.8333C44.8333 40.2267 45.09 39.62 45.51 39.1767C46.3733 38.3133 47.96 38.3133 48.8233 39.1767C49.2433 39.62 49.5 40.2267 49.5 40.8333C49.5 41.44 49.2433 42.0466 48.8233 42.49C48.38 42.91 47.7733 43.1667 47.1666 43.1667Z" fill="#3083FF"/>
<defs>
<filter id="filter0_f_355_3486" x="0" y="9" width="78" height="78" filterUnits="userSpaceOnUse" color-interpolation-filters="sRGB">
<feFlood flood-opacity="0" result="BackgroundImageFix"/>
<feBlend mode="normal" in="SourceGraphic" in2="BackgroundImageFix" result="shape"/>
<feGaussianBlur stdDeviation="15.5" result="effect1_foregroundBlur_355_3486"/>
</filter>
</defs>
</svg>
