<svg width="24" height="24" viewBox="0 0 24 24" fill="none" xmlns="http://www.w3.org/2000/svg">
<path opacity="0.4" d="M23.53 12.05C23.24 11.76 22.76 11.76 22.47 12.05L22.01 12.51V12C22.01 6.48 17.52 1.98999 12 1.98999C8.95 1.98999 6.1 3.35999 4.19 5.73999C3.93 6.05999 3.98 6.53998 4.31 6.78998C4.63 7.04998 5.11 6.99998 5.36 6.66998C6.99 4.63998 9.41 3.47998 12 3.47998C16.69 3.47998 20.51 7.29999 20.51 11.99V12.49L20.05 12.03C19.76 11.74 19.28 11.74 18.99 12.03C18.7 12.32 18.7 12.8 18.99 13.09L20.73 14.83C20.8 14.9 20.88 14.95 20.97 14.99C21.06 15.03 21.16 15.05 21.26 15.05C21.36 15.05 21.45 15.03 21.55 14.99C21.64 14.95 21.72 14.9 21.79 14.83L23.53 13.09C23.82 12.82 23.82 12.34 23.53 12.05Z" fill="#3083FF"/>
<path opacity="0.4" d="M19.69 17.2C19.37 16.94 18.89 16.99 18.64 17.32C17.01 19.35 14.59 20.51 12 20.51C7.31001 20.51 3.49001 16.69 3.49001 12V11.5L3.95001 11.96C4.10001 12.11 4.29001 12.18 4.48001 12.18C4.67001 12.18 4.86001 12.11 5.01001 11.96C5.30001 11.67 5.30001 11.19 5.01001 10.9L3.27001 9.15998C3.20001 9.08998 3.12001 9.04 3.03001 9C2.85001 8.92 2.64001 8.92 2.46001 9C2.37001 9.04 2.29001 9.08998 2.22001 9.15998L0.480012 10.9C0.190012 11.19 0.190012 11.67 0.480012 11.96C0.770012 12.25 1.25001 12.25 1.54001 11.96L2.00001 11.5V12C2.00001 17.52 6.49001 22.01 12.01 22.01C15.06 22.01 17.91 20.64 19.82 18.26C20.07 17.94 20.02 17.46 19.69 17.2Z" fill="#3083FF"/>
<path d="M7.02871 15V14.5091C7.02871 14.1491 7.13078 13.7924 7.33493 13.439C7.53908 13.079 7.7847 12.7583 8.07179 12.4769C8.36525 12.1889 8.65553 11.9173 8.94261 11.662C9.2297 11.4002 9.47532 11.1351 9.67947 10.8668C9.88362 10.5984 9.98569 10.3497 9.98569 10.1206C9.98569 9.86536 9.90913 9.66246 9.75602 9.51192C9.60291 9.35484 9.39238 9.2763 9.12443 9.2763C8.80958 9.2763 8.56518 9.39249 8.39121 9.62488C8.2241 9.8481 7.95858 10.0157 7.69152 9.93555L7.44734 9.86223C7.19551 9.78662 7.04052 9.52564 7.14857 9.28592C7.16788 9.2431 7.18853 9.20062 7.21053 9.15849C7.30622 8.97522 7.43382 8.79196 7.59331 8.6087C7.75918 8.42543 7.97928 8.27817 8.25361 8.1669C8.52793 8.05563 8.83735 8 9.18185 8C9.83258 8 10.3589 8.18981 10.7608 8.56943C11.1627 8.9425 11.3637 9.43993 11.3637 10.0617C11.3637 10.4021 11.2776 10.7326 11.1053 11.0533C10.9331 11.374 10.7194 11.6554 10.4642 11.8976C10.209 12.1332 9.9506 12.359 9.68904 12.575C9.43385 12.7845 9.20418 12.9972 9.00003 13.2132C8.79588 13.4226 8.67148 13.6157 8.62682 13.7924H10.9403C11.2164 13.7924 11.4403 14.0163 11.4403 14.2924V14.5C11.4403 14.7761 11.2164 15 10.9403 15H7.02871Z" fill="#3083FF"/>
<path d="M12.3994 13.3997C12.1233 13.3997 11.8994 13.1759 11.8994 12.8997V12.4081L14.6459 8.12763H16.2153V12.2216H16.5C16.7761 12.2216 17 12.4455 17 12.7216V12.8997C17 13.1759 16.7761 13.3997 16.5 13.3997H16.2153V14.5C16.2153 14.7761 15.9914 15 15.7153 15H15.3851C15.109 15 14.8851 14.7761 14.8851 14.5V13.3997H12.3994ZM13.287 12.2216H14.8851V9.669L13.287 12.2216Z" fill="#3083FF"/>
</svg>
