<svg width="144" height="40" viewBox="0 0 144 40" fill="none" xmlns="http://www.w3.org/2000/svg">
<g clip-path="url(#clip0_355_3139)">
<path d="M0 32.8001C5.30194 32.8001 9.59996 28.502 9.59996 23.2002C9.59996 17.8982 5.30194 13.6001 0 13.6001V20.3201C1.59057 20.3201 2.87997 21.6095 2.87997 23.2002C2.87997 24.7907 1.59057 26.0801 0 26.0801V32.8001Z" fill="#2669CC"/>
<path d="M32 16.8001C30.3595 16.2804 28.6126 16 26.8 16C17.3007 16 9.6001 23.7008 9.6001 33.2C9.6001 34.1535 9.67769 35.0889 9.82685 36H20.5137C20.1322 35.1447 19.9201 34.1972 19.9201 33.2C19.9201 29.4003 23.0003 26.32 26.8 26.32C28.8768 26.32 30.7385 27.2402 32 28.695V16.8001Z" fill="#BFD9FF"/>
<path d="M1.68788 4C2.48379 11.1999 8.58792 16.8001 16 16.8001C23.4119 16.8001 29.5161 11.1999 30.312 4H20.0139C19.3782 5.59378 17.8205 6.71999 16 6.71999C14.1793 6.71999 12.6218 5.59378 11.9859 4H1.68788Z" fill="#3083FF"/>
</g>
<path d="M49.192 28.288C47.48 28.288 46.016 27.992 44.8 27.4C43.584 26.792 42.656 25.856 42.016 24.592C41.392 23.328 41.08 21.72 41.08 19.768C41.08 16.888 41.784 14.752 43.192 13.36C44.616 11.952 46.616 11.248 49.192 11.248C50.6 11.248 51.864 11.488 52.984 11.968C54.104 12.448 54.984 13.168 55.624 14.128C56.28 15.088 56.608 16.296 56.608 17.752H53.008C53.008 16.984 52.848 16.336 52.528 15.808C52.224 15.28 51.784 14.88 51.208 14.608C50.648 14.32 49.992 14.176 49.24 14.176C48.216 14.176 47.368 14.376 46.696 14.776C46.04 15.176 45.552 15.768 45.232 16.552C44.928 17.32 44.776 18.264 44.776 19.384V20.128C44.776 21.28 44.936 22.248 45.256 23.032C45.576 23.8 46.056 24.384 46.696 24.784C47.352 25.168 48.192 25.36 49.216 25.36C50.016 25.36 50.712 25.224 51.304 24.952C51.896 24.68 52.352 24.28 52.672 23.752C52.992 23.224 53.152 22.576 53.152 21.808H56.608C56.608 23.264 56.288 24.472 55.648 25.432C55.024 26.392 54.152 27.112 53.032 27.592C51.912 28.056 50.632 28.288 49.192 28.288ZM62.4736 28.288C62.0576 28.288 61.6096 28.24 61.1296 28.144C60.6656 28.048 60.2256 27.88 59.8096 27.64C59.3936 27.384 59.0496 27.024 58.7776 26.56C58.5216 26.08 58.3936 25.472 58.3936 24.736C58.3936 23.856 58.5856 23.128 58.9696 22.552C59.3536 21.976 59.8976 21.528 60.6016 21.208C61.3216 20.872 62.1776 20.64 63.1696 20.512C64.1616 20.384 65.2576 20.32 66.4576 20.32V19.384C66.4576 19.016 66.3936 18.696 66.2656 18.424C66.1536 18.152 65.9456 17.936 65.6416 17.776C65.3536 17.616 64.9456 17.536 64.4176 17.536C63.8896 17.536 63.4576 17.6 63.1216 17.728C62.8016 17.856 62.5696 18.024 62.4256 18.232C62.2976 18.424 62.2336 18.64 62.2336 18.88V19.168H58.9936C58.9776 19.088 58.9696 19.016 58.9696 18.952C58.9696 18.872 58.9696 18.776 58.9696 18.664C58.9696 17.928 59.1936 17.296 59.6416 16.768C60.0896 16.224 60.7216 15.808 61.5376 15.52C62.3536 15.232 63.3056 15.088 64.3936 15.088C65.5616 15.088 66.5376 15.24 67.3216 15.544C68.1216 15.848 68.7296 16.296 69.1456 16.888C69.5776 17.48 69.7936 18.224 69.7936 19.12V24.856C69.7936 25.144 69.8736 25.36 70.0336 25.504C70.2096 25.632 70.4016 25.696 70.6096 25.696H71.4016V27.88C71.2416 27.96 70.9936 28.04 70.6576 28.12C70.3216 28.216 69.9136 28.264 69.4336 28.264C68.9696 28.264 68.5536 28.192 68.1856 28.048C67.8336 27.92 67.5376 27.736 67.2976 27.496C67.0576 27.24 66.8896 26.936 66.7936 26.584H66.6256C66.3536 26.92 66.0176 27.216 65.6176 27.472C65.2336 27.728 64.7776 27.928 64.2496 28.072C63.7376 28.216 63.1456 28.288 62.4736 28.288ZM63.6016 25.768C64.0496 25.768 64.4496 25.704 64.8016 25.576C65.1536 25.432 65.4496 25.248 65.6896 25.024C65.9296 24.784 66.1136 24.496 66.2416 24.16C66.3856 23.824 66.4576 23.464 66.4576 23.08V22.384C65.5616 22.384 64.7616 22.448 64.0576 22.576C63.3536 22.688 62.7936 22.888 62.3776 23.176C61.9776 23.464 61.7776 23.864 61.7776 24.376C61.7776 24.664 61.8496 24.912 61.9936 25.12C62.1376 25.328 62.3456 25.488 62.6176 25.6C62.8896 25.712 63.2176 25.768 63.6016 25.768ZM73.0594 28V15.376H75.8194L76.0834 17.344H76.2514C76.4114 16.928 76.6194 16.552 76.8754 16.216C77.1314 15.864 77.4514 15.584 77.8354 15.376C78.2194 15.168 78.6674 15.064 79.1794 15.064C79.4514 15.064 79.6994 15.096 79.9234 15.16C80.1474 15.208 80.3154 15.256 80.4274 15.304V18.328H79.3954C78.8994 18.328 78.4594 18.4 78.0754 18.544C77.7074 18.672 77.3954 18.88 77.1394 19.168C76.8834 19.456 76.6914 19.808 76.5634 20.224C76.4514 20.64 76.3954 21.128 76.3954 21.688V28H73.0594ZM87.6783 28.288C86.2863 28.288 85.1183 28.056 84.1743 27.592C83.2303 27.112 82.5183 26.384 82.0383 25.408C81.5583 24.432 81.3183 23.192 81.3183 21.688C81.3183 20.168 81.5583 18.928 82.0383 17.968C82.5183 16.992 83.2223 16.272 84.1503 15.808C85.0943 15.328 86.2463 15.088 87.6063 15.088C88.8863 15.088 89.9663 15.32 90.8463 15.784C91.7263 16.232 92.3903 16.936 92.8383 17.896C93.2863 18.84 93.5103 20.064 93.5103 21.568V22.432H84.7023C84.7343 23.168 84.8463 23.792 85.0383 24.304C85.2463 24.816 85.5583 25.2 85.9743 25.456C86.4063 25.696 86.9743 25.816 87.6783 25.816C88.0623 25.816 88.4063 25.768 88.7103 25.672C89.0303 25.576 89.3023 25.432 89.5263 25.24C89.7503 25.048 89.9263 24.808 90.0543 24.52C90.1823 24.232 90.2463 23.904 90.2463 23.536H93.5103C93.5103 24.336 93.3663 25.032 93.0782 25.624C92.7903 26.216 92.3903 26.712 91.8783 27.112C91.3663 27.496 90.7503 27.792 90.0303 28C89.3263 28.192 88.5423 28.288 87.6783 28.288ZM84.7503 20.32H90.0783C90.0783 19.84 90.0143 19.424 89.8863 19.072C89.7743 18.72 89.6143 18.432 89.4063 18.208C89.1983 17.984 88.9423 17.824 88.6383 17.728C88.3503 17.616 88.0223 17.56 87.6543 17.56C87.0463 17.56 86.5343 17.664 86.1183 17.872C85.7183 18.064 85.4063 18.368 85.1823 18.784C84.9743 19.184 84.8303 19.696 84.7503 20.32ZM95.9579 28V15.376H98.7179L98.9819 17.104H99.1499C99.4379 16.688 99.7819 16.328 100.182 16.024C100.598 15.72 101.062 15.488 101.574 15.328C102.086 15.168 102.646 15.088 103.254 15.088C104.086 15.088 104.814 15.24 105.438 15.544C106.062 15.848 106.542 16.328 106.878 16.984C107.23 17.64 107.406 18.496 107.406 19.552V28H104.07V20.08C104.07 19.68 104.022 19.344 103.926 19.072C103.83 18.784 103.686 18.552 103.494 18.376C103.318 18.184 103.094 18.048 102.822 17.968C102.55 17.888 102.246 17.848 101.91 17.848C101.414 17.848 100.966 17.968 100.566 18.208C100.166 18.448 99.8539 18.776 99.6299 19.192C99.4059 19.608 99.2939 20.088 99.2939 20.632V28H95.9579ZM114.163 28.288C113.363 28.288 112.715 28.144 112.219 27.856C111.723 27.568 111.363 27.184 111.139 26.704C110.915 26.208 110.803 25.664 110.803 25.072V17.944H109.243V15.376H110.923L111.547 11.776H114.139V15.376H116.443V17.944H114.139V24.52C114.139 24.904 114.227 25.2 114.403 25.408C114.579 25.6 114.867 25.696 115.267 25.696H116.443V27.904C116.251 27.968 116.027 28.024 115.771 28.072C115.515 28.136 115.243 28.184 114.955 28.216C114.667 28.264 114.403 28.288 114.163 28.288ZM121.935 28.288C121.519 28.288 121.071 28.24 120.59 28.144C120.127 28.048 119.687 27.88 119.271 27.64C118.855 27.384 118.511 27.024 118.239 26.56C117.983 26.08 117.854 25.472 117.854 24.736C117.854 23.856 118.047 23.128 118.431 22.552C118.815 21.976 119.359 21.528 120.062 21.208C120.783 20.872 121.639 20.64 122.631 20.512C123.623 20.384 124.719 20.32 125.919 20.32V19.384C125.919 19.016 125.855 18.696 125.727 18.424C125.615 18.152 125.407 17.936 125.103 17.776C124.815 17.616 124.407 17.536 123.879 17.536C123.351 17.536 122.919 17.6 122.583 17.728C122.263 17.856 122.031 18.024 121.887 18.232C121.759 18.424 121.695 18.64 121.695 18.88V19.168H118.455C118.439 19.088 118.431 19.016 118.431 18.952C118.431 18.872 118.431 18.776 118.431 18.664C118.431 17.928 118.655 17.296 119.103 16.768C119.551 16.224 120.183 15.808 120.999 15.52C121.815 15.232 122.767 15.088 123.855 15.088C125.023 15.088 125.999 15.24 126.783 15.544C127.583 15.848 128.191 16.296 128.607 16.888C129.039 17.48 129.255 18.224 129.255 19.12V24.856C129.255 25.144 129.335 25.36 129.495 25.504C129.671 25.632 129.863 25.696 130.071 25.696H130.863V27.88C130.703 27.96 130.455 28.04 130.119 28.12C129.783 28.216 129.375 28.264 128.895 28.264C128.431 28.264 128.015 28.192 127.647 28.048C127.295 27.92 126.999 27.736 126.759 27.496C126.519 27.24 126.351 26.936 126.255 26.584H126.087C125.815 26.92 125.479 27.216 125.079 27.472C124.695 27.728 124.239 27.928 123.711 28.072C123.199 28.216 122.607 28.288 121.935 28.288ZM123.062 25.768C123.511 25.768 123.911 25.704 124.263 25.576C124.615 25.432 124.911 25.248 125.151 25.024C125.391 24.784 125.575 24.496 125.703 24.16C125.847 23.824 125.919 23.464 125.919 23.08V22.384C125.023 22.384 124.223 22.448 123.519 22.576C122.815 22.688 122.255 22.888 121.839 23.176C121.439 23.464 121.239 23.864 121.239 24.376C121.239 24.664 121.311 24.912 121.455 25.12C121.599 25.328 121.807 25.488 122.079 25.6C122.351 25.712 122.679 25.768 123.062 25.768ZM132.52 28V10.648H135.856V28H132.52ZM138.919 28V10.648H142.255V28H138.919Z" fill="white"/>
<defs>
<clipPath id="clip0_355_3139">
<rect width="32" height="32" fill="white" transform="translate(0 4)"/>
</clipPath>
</defs>
</svg>
