<svg width="207" height="66" viewBox="0 0 207 66" fill="none" xmlns="http://www.w3.org/2000/svg">
<path d="M14 45.8001C19.3019 45.8001 23.6 41.502 23.6 36.2001C23.6 30.8981 19.3019 26.6001 14 26.6001V33.32C15.5906 33.32 16.88 34.6095 16.88 36.2001C16.88 37.7907 15.5906 39.0801 14 39.0801V45.8001Z" fill="#2669CC"/>
<path d="M46.0001 29.8C44.3596 29.2803 42.6126 29 40.8 29C31.3007 29 23.6001 36.7007 23.6001 46.2C23.6001 47.1535 23.6777 48.0888 23.8268 49H34.5137C34.1323 48.1447 33.9202 47.1971 33.9202 46.2C33.9202 42.4003 37.0004 39.32 40.8 39.32C42.8768 39.32 44.7386 40.2401 46.0001 41.6949V29.8Z" fill="#BFD9FF"/>
<path d="M15.6879 17C16.4838 24.1999 22.5879 29.8001 30 29.8001C37.412 29.8001 43.5162 24.1999 44.312 17H34.0139C33.3782 18.5938 31.8205 19.72 30 19.72C28.1793 19.72 26.6218 18.5938 25.9859 17H15.6879Z" fill="#3083FF"/>
<path d="M80.256 44.384C77.9733 44.384 76.0213 43.9893 74.4 43.2C72.7787 42.3893 71.5413 41.1413 70.688 39.456C69.856 37.7707 69.44 35.6267 69.44 33.024C69.44 29.184 70.3787 26.336 72.256 24.48C74.1547 22.6027 76.8213 21.664 80.256 21.664C82.1333 21.664 83.8187 21.984 85.312 22.624C86.8053 23.264 87.9787 24.224 88.832 25.504C89.7067 26.784 90.144 28.3947 90.144 30.336H85.344C85.344 29.312 85.1307 28.448 84.704 27.744C84.2987 27.04 83.712 26.5067 82.944 26.144C82.1973 25.76 81.3227 25.568 80.32 25.568C78.9547 25.568 77.824 25.8347 76.928 26.368C76.0533 26.9013 75.4027 27.6907 74.976 28.736C74.5707 29.76 74.368 31.0187 74.368 32.512V33.504C74.368 35.04 74.5813 36.3307 75.008 37.376C75.4347 38.4 76.0747 39.1787 76.928 39.712C77.8027 40.224 78.9227 40.48 80.288 40.48C81.3547 40.48 82.2827 40.2987 83.072 39.936C83.8613 39.5733 84.4693 39.04 84.896 38.336C85.3227 37.632 85.536 36.768 85.536 35.744H90.144C90.144 37.6853 89.7173 39.296 88.864 40.576C88.032 41.856 86.8693 42.816 85.376 43.456C83.8827 44.0747 82.176 44.384 80.256 44.384ZM97.9648 44.384C97.4101 44.384 96.8128 44.32 96.1727 44.192C95.5541 44.064 94.9674 43.84 94.4128 43.52C93.8581 43.1787 93.3994 42.6987 93.0368 42.08C92.6954 41.44 92.5247 40.6293 92.5247 39.648C92.5247 38.4747 92.7808 37.504 93.2928 36.736C93.8048 35.968 94.5301 35.3707 95.4688 34.944C96.4288 34.496 97.5701 34.1867 98.8928 34.016C100.215 33.8453 101.677 33.76 103.277 33.76V32.512C103.277 32.0213 103.191 31.5947 103.021 31.232C102.871 30.8693 102.594 30.5813 102.189 30.368C101.805 30.1547 101.261 30.048 100.557 30.048C99.8528 30.048 99.2768 30.1333 98.8288 30.304C98.4021 30.4747 98.0928 30.6987 97.9008 30.976C97.7301 31.232 97.6448 31.52 97.6448 31.84V32.224H93.3248C93.3034 32.1173 93.2928 32.0213 93.2928 31.936C93.2928 31.8293 93.2928 31.7013 93.2928 31.552C93.2928 30.5707 93.5914 29.728 94.1888 29.024C94.7861 28.2987 95.6288 27.744 96.7168 27.36C97.8048 26.976 99.0741 26.784 100.525 26.784C102.082 26.784 103.383 26.9867 104.429 27.392C105.495 27.7973 106.306 28.3947 106.861 29.184C107.437 29.9733 107.725 30.9653 107.725 32.16V39.808C107.725 40.192 107.831 40.48 108.045 40.672C108.279 40.8427 108.535 40.928 108.813 40.928H109.869V43.84C109.655 43.9467 109.325 44.0533 108.877 44.16C108.429 44.288 107.885 44.352 107.245 44.352C106.626 44.352 106.071 44.256 105.581 44.064C105.111 43.8933 104.717 43.648 104.397 43.328C104.077 42.9867 103.853 42.5813 103.725 42.112H103.501C103.138 42.56 102.69 42.9547 102.157 43.296C101.645 43.6373 101.037 43.904 100.333 44.096C99.6501 44.288 98.8608 44.384 97.9648 44.384ZM99.4688 41.024C100.066 41.024 100.599 40.9387 101.069 40.768C101.538 40.576 101.933 40.3307 102.253 40.032C102.573 39.712 102.818 39.328 102.989 38.88C103.181 38.432 103.277 37.952 103.277 37.44V36.512C102.082 36.512 101.015 36.5973 100.077 36.768C99.1381 36.9173 98.3914 37.184 97.8368 37.568C97.3034 37.952 97.0368 38.4853 97.0368 39.168C97.0368 39.552 97.1328 39.8827 97.3248 40.16C97.5168 40.4373 97.7941 40.6507 98.1568 40.8C98.5194 40.9493 98.9568 41.024 99.4688 41.024ZM112.079 44V27.168H115.759L116.111 29.792H116.335C116.549 29.2373 116.826 28.736 117.167 28.288C117.509 27.8187 117.935 27.4453 118.447 27.168C118.959 26.8907 119.557 26.752 120.239 26.752C120.602 26.752 120.933 26.7947 121.231 26.88C121.53 26.944 121.754 27.008 121.903 27.072V31.104H120.527C119.866 31.104 119.279 31.2 118.767 31.392C118.277 31.5627 117.861 31.84 117.519 32.224C117.178 32.608 116.922 33.0773 116.751 33.632C116.602 34.1867 116.527 34.8373 116.527 35.584V44H112.079ZM131.571 44.384C129.715 44.384 128.158 44.0747 126.899 43.456C125.64 42.816 124.691 41.8453 124.051 40.544C123.411 39.2427 123.091 37.5893 123.091 35.584C123.091 33.5573 123.411 31.904 124.051 30.624C124.691 29.3227 125.63 28.3627 126.867 27.744C128.126 27.104 129.662 26.784 131.475 26.784C133.182 26.784 134.622 27.0933 135.795 27.712C136.968 28.3093 137.854 29.248 138.451 30.528C139.048 31.7867 139.347 33.4187 139.347 35.424V36.576H127.603C127.646 37.5573 127.795 38.3893 128.051 39.072C128.328 39.7547 128.744 40.2667 129.299 40.608C129.875 40.928 130.632 41.088 131.571 41.088C132.083 41.088 132.542 41.024 132.947 40.896C133.374 40.768 133.736 40.576 134.035 40.32C134.334 40.064 134.568 39.744 134.739 39.36C134.91 38.976 134.995 38.5387 134.995 38.048H139.347C139.347 39.1147 139.155 40.0427 138.771 40.832C138.387 41.6213 137.854 42.2827 137.171 42.816C136.488 43.328 135.667 43.7227 134.707 44C133.768 44.256 132.723 44.384 131.571 44.384ZM127.667 33.76H134.771C134.771 33.12 134.686 32.5653 134.515 32.096C134.366 31.6267 134.152 31.2427 133.875 30.944C133.598 30.6453 133.256 30.432 132.851 30.304C132.467 30.1547 132.03 30.08 131.539 30.08C130.728 30.08 130.046 30.2187 129.491 30.496C128.958 30.752 128.542 31.1573 128.243 31.712C127.966 32.2453 127.774 32.928 127.667 33.76ZM142.611 44V27.168H146.291L146.643 29.472H146.867C147.251 28.9173 147.709 28.4373 148.243 28.032C148.797 27.6267 149.416 27.3173 150.099 27.104C150.781 26.8907 151.528 26.784 152.339 26.784C153.448 26.784 154.419 26.9867 155.251 27.392C156.083 27.7973 156.723 28.4373 157.171 29.312C157.64 30.1867 157.875 31.328 157.875 32.736V44H153.427V33.44C153.427 32.9067 153.363 32.4587 153.235 32.096C153.107 31.712 152.915 31.4027 152.659 31.168C152.424 30.912 152.125 30.7307 151.763 30.624C151.4 30.5173 150.995 30.464 150.547 30.464C149.885 30.464 149.288 30.624 148.755 30.944C148.221 31.264 147.805 31.7013 147.507 32.256C147.208 32.8107 147.059 33.4507 147.059 34.176V44H142.611ZM166.885 44.384C165.818 44.384 164.954 44.192 164.293 43.808C163.631 43.424 163.151 42.912 162.853 42.272C162.554 41.6107 162.405 40.8853 162.405 40.096V30.592H160.325V27.168H162.565L163.397 22.368H166.853V27.168H169.925V30.592H166.853V39.36C166.853 39.872 166.97 40.2667 167.205 40.544C167.439 40.8 167.823 40.928 168.357 40.928H169.925V43.872C169.669 43.9573 169.37 44.032 169.029 44.096C168.687 44.1813 168.325 44.2453 167.941 44.288C167.557 44.352 167.205 44.384 166.885 44.384ZM177.246 44.384C176.691 44.384 176.094 44.32 175.454 44.192C174.835 44.064 174.249 43.84 173.694 43.52C173.139 43.1787 172.681 42.6987 172.318 42.08C171.977 41.44 171.806 40.6293 171.806 39.648C171.806 38.4747 172.062 37.504 172.574 36.736C173.086 35.968 173.811 35.3707 174.75 34.944C175.71 34.496 176.851 34.1867 178.174 34.016C179.497 33.8453 180.958 33.76 182.558 33.76V32.512C182.558 32.0213 182.473 31.5947 182.302 31.232C182.153 30.8693 181.875 30.5813 181.47 30.368C181.086 30.1547 180.542 30.048 179.838 30.048C179.134 30.048 178.558 30.1333 178.11 30.304C177.683 30.4747 177.374 30.6987 177.182 30.976C177.011 31.232 176.926 31.52 176.926 31.84V32.224H172.606C172.585 32.1173 172.574 32.0213 172.574 31.936C172.574 31.8293 172.574 31.7013 172.574 31.552C172.574 30.5707 172.873 29.728 173.47 29.024C174.067 28.2987 174.91 27.744 175.998 27.36C177.086 26.976 178.355 26.784 179.806 26.784C181.363 26.784 182.665 26.9867 183.71 27.392C184.777 27.7973 185.587 28.3947 186.142 29.184C186.718 29.9733 187.006 30.9653 187.006 32.16V39.808C187.006 40.192 187.113 40.48 187.326 40.672C187.561 40.8427 187.817 40.928 188.094 40.928H189.15V43.84C188.937 43.9467 188.606 44.0533 188.158 44.16C187.71 44.288 187.166 44.352 186.526 44.352C185.907 44.352 185.353 44.256 184.862 44.064C184.393 43.8933 183.998 43.648 183.678 43.328C183.358 42.9867 183.134 42.5813 183.006 42.112H182.782C182.419 42.56 181.971 42.9547 181.438 43.296C180.926 43.6373 180.318 43.904 179.614 44.096C178.931 44.288 178.142 44.384 177.246 44.384ZM178.75 41.024C179.347 41.024 179.881 40.9387 180.35 40.768C180.819 40.576 181.214 40.3307 181.534 40.032C181.854 39.712 182.099 39.328 182.27 38.88C182.462 38.432 182.558 37.952 182.558 37.44V36.512C181.363 36.512 180.297 36.5973 179.358 36.768C178.419 36.9173 177.673 37.184 177.118 37.568C176.585 37.952 176.318 38.4853 176.318 39.168C176.318 39.552 176.414 39.8827 176.606 40.16C176.798 40.4373 177.075 40.6507 177.438 40.8C177.801 40.9493 178.238 41.024 178.75 41.024ZM191.361 44V20.864H195.809V44H191.361ZM199.892 44V20.864H204.34V44H199.892Z" fill="#1A1A1A"/>
</svg>
