<svg width="24" height="25" viewBox="0 0 24 25" fill="none" xmlns="http://www.w3.org/2000/svg">
<g id="vuesax/linear/star">
<g id="vuesax/linear/star_2">
<g id="star">
<path id="Vector" d="M13.73 4.00989L15.49 7.52989C15.73 8.01989 16.37 8.48989 16.91 8.57989L20.1 9.10989C22.14 9.44989 22.62 10.9299 21.15 12.3899L18.67 14.8699C18.25 15.2899 18.02 16.0999 18.15 16.6799L18.86 19.7499C19.42 22.1799 18.13 23.1199 15.98 21.8499L12.99 20.0799C12.45 19.7599 11.56 19.7599 11.01 20.0799L8.01997 21.8499C5.87997 23.1199 4.57997 22.1699 5.13997 19.7499L5.84997 16.6799C5.97997 16.0999 5.74997 15.2899 5.32997 14.8699L2.84997 12.3899C1.38997 10.9299 1.85997 9.44989 3.89997 9.10989L7.08997 8.57989C7.61997 8.48989 8.25997 8.01989 8.49997 7.52989L10.26 4.00989C11.22 2.09989 12.78 2.09989 13.73 4.00989Z" fill="#FFBD3D"/>
</g>
</g>
</g>
</svg>
